<svg width="1253" height="226" viewBox="0 0 1253 226" fill="none" xmlns="http://www.w3.org/2000/svg">
<path d="M302.996 137.602V117.484H330.828C336.036 117.484 340.593 116.508 344.5 114.555C348.471 112.536 351.531 109.737 353.679 106.156C355.893 102.51 357 98.2786 357 93.4609C357 86.039 354.493 80.2447 349.48 76.0781C344.467 71.8463 337.859 69.7304 329.656 69.7304H302.996V48.1484H333.367C342.351 48.1484 350.391 49.8411 357.488 53.2265C364.649 56.5468 370.313 61.3971 374.48 67.7773C378.647 74.0924 380.73 81.7421 380.73 90.7265C380.73 99.4505 378.614 107.361 374.382 114.457C370.216 121.488 364.194 127.12 356.316 131.352C348.503 135.518 339.161 137.602 328.289 137.602H302.996ZM286.492 192.094V48.1484H310.515V192.094H286.492ZM365.3 192.094L330.144 133.988L348.308 119.73L392.644 192.094H365.3ZM448.894 193.656C438.347 193.656 429.135 191.41 421.257 186.918C413.38 182.361 407.227 176.046 402.8 167.973C398.373 159.9 396.16 150.59 396.16 140.043C396.16 129.105 398.373 119.633 402.8 111.625C407.227 103.617 413.184 97.4322 420.671 93.0703C428.158 88.6432 436.459 86.4296 445.574 86.4296C454.298 86.4296 462.175 88.4479 469.207 92.4843C476.303 96.5208 481.934 102.152 486.101 109.379C490.268 116.54 492.351 124.939 492.351 134.574C492.351 137.048 492.221 139.359 491.96 141.508C491.7 143.656 491.375 145.805 490.984 147.953H413.445V131.644H470.769C470.769 126.697 469.727 122.302 467.644 118.461C465.561 114.555 462.631 111.495 458.855 109.281C455.079 107.003 450.652 105.863 445.574 105.863C439.845 105.863 434.832 107.296 430.535 110.16C426.303 112.96 422.983 116.898 420.574 121.977C418.23 126.99 417.058 132.849 417.058 139.555C417.058 146.391 418.328 152.413 420.867 157.621C423.471 162.829 427.117 166.898 431.804 169.828C436.557 172.758 442.188 174.223 448.699 174.223C452.41 174.223 455.925 173.767 459.246 172.855C462.566 171.944 465.593 170.772 468.328 169.34C471.062 167.842 473.406 166.28 475.359 164.652L483.269 183.598C479.167 186.527 474.122 188.936 468.132 190.824C462.208 192.712 455.795 193.656 448.894 193.656ZM511.296 192.094V87.8945H533.66V100.687H537.273L528.875 110.844C531.804 103.031 536.166 97.0091 541.96 92.7773C547.755 88.4804 554.558 86.332 562.371 86.332C569.662 86.332 575.815 88.1874 580.828 91.8984C585.906 95.5442 589.486 100.46 591.57 106.644L585.417 100.98H593.816L586.296 106.644C589.552 99.8085 594.337 94.7304 600.652 91.4101C606.967 88.0247 613.835 86.332 621.257 86.332C627.572 86.332 632.944 87.4062 637.371 89.5546C641.863 91.7031 645.476 94.6002 648.21 98.246C651.01 101.892 653.061 106.026 654.363 110.648C655.73 115.206 656.414 119.926 656.414 124.809V192.094H633.269V128.422C633.269 121.195 631.641 115.727 628.386 112.016C625.131 108.24 620.704 106.352 615.105 106.352C611.524 106.352 608.236 107.165 605.242 108.793C602.247 110.421 599.838 112.862 598.015 116.117C596.257 119.372 595.378 123.474 595.378 128.422V192.094H572.332V128.422C572.332 121.195 570.671 115.727 567.351 112.016C564.096 108.24 559.669 106.352 554.07 106.352C548.666 106.352 544.011 108.24 540.105 112.016C536.264 115.792 534.343 121.423 534.343 128.91V192.094H511.296ZM726.042 193.656C715.496 193.656 706.283 191.41 698.406 186.918C690.528 182.361 684.376 176.046 679.949 167.973C675.522 159.9 673.308 150.59 673.308 140.043C673.308 129.105 675.522 119.633 679.949 111.625C684.376 103.617 690.333 97.4322 697.82 93.0703C705.307 88.6432 713.608 86.4296 722.722 86.4296C731.446 86.4296 739.324 88.4479 746.355 92.4843C753.451 96.5208 759.083 102.152 763.25 109.379C767.416 116.54 769.5 124.939 769.5 134.574C769.5 137.048 769.369 139.359 769.109 141.508C768.848 143.656 768.523 145.805 768.132 147.953H690.593V131.644H747.917C747.917 126.697 746.876 122.302 744.792 118.461C742.709 114.555 739.779 111.495 736.003 109.281C732.227 107.003 727.8 105.863 722.722 105.863C716.993 105.863 711.98 107.296 707.683 110.16C703.451 112.96 700.131 116.898 697.722 121.977C695.378 126.99 694.207 132.849 694.207 139.555C694.207 146.391 695.476 152.413 698.015 157.621C700.619 162.829 704.265 166.898 708.953 169.828C713.705 172.758 719.337 174.223 725.847 174.223C729.558 174.223 733.074 173.767 736.394 172.855C739.714 171.944 742.742 170.772 745.476 169.34C748.21 167.842 750.554 166.28 752.507 164.652L760.417 183.598C756.316 186.527 751.27 188.936 745.281 190.824C739.356 192.712 732.944 193.656 726.042 193.656ZM788.445 192.094V87.8945H810.808V100.687H814.421L806.023 110.844C808.953 103.031 813.315 97.0091 819.109 92.7773C824.903 88.4804 831.707 86.332 839.519 86.332C846.811 86.332 852.963 88.1874 857.976 91.8984C863.054 95.5442 866.635 100.46 868.718 106.644L862.566 100.98H870.964L863.445 106.644C866.7 99.8085 871.485 94.7304 877.8 91.4101C884.115 88.0247 890.984 86.332 898.406 86.332C904.721 86.332 910.092 87.4062 914.519 89.5546C919.011 91.7031 922.625 94.6002 925.359 98.246C928.158 101.892 930.209 106.026 931.511 110.648C932.878 115.206 933.562 119.926 933.562 124.809V192.094H910.417V128.422C910.417 121.195 908.79 115.727 905.535 112.016C902.279 108.24 897.852 106.352 892.253 106.352C888.673 106.352 885.385 107.165 882.39 108.793C879.395 110.421 876.986 112.862 875.164 116.117C873.406 119.372 872.527 123.474 872.527 128.422V192.094H849.48V128.422C849.48 121.195 847.82 115.727 844.5 112.016C841.244 108.24 836.817 106.352 831.218 106.352C825.815 106.352 821.16 108.24 817.253 112.016C813.412 115.792 811.492 121.423 811.492 128.91V192.094H788.445ZM956.609 192.094V41.7031H979.656V99.1249H981.609L977.312 112.406V168.754L982.585 179.008H978.972V192.094H956.609ZM1011.39 193.656C1002.67 193.656 994.858 191.28 987.957 186.527C981.121 181.775 975.717 175.297 971.746 167.094C967.774 158.891 965.756 149.678 965.691 139.457C965.756 129.236 967.709 120.121 971.55 112.113C975.457 104.04 980.795 97.6926 987.566 93.0703C994.402 88.4479 1002.21 86.1367 1011 86.1367C1019.14 86.1367 1026.79 88.2525 1033.95 92.4843C1041.11 96.7161 1046.88 102.836 1051.24 110.844C1055.66 118.852 1057.81 128.585 1057.68 140.043C1057.75 148.572 1056.51 156.189 1053.97 162.894C1051.43 169.535 1047.98 175.134 1043.62 179.691C1039.26 184.249 1034.28 187.732 1028.68 190.141C1023.15 192.484 1017.38 193.656 1011.39 193.656ZM1006.61 173.734C1012.08 173.734 1016.96 172.269 1021.26 169.34C1025.55 166.41 1028.87 162.406 1031.22 157.328C1033.63 152.185 1034.8 146.325 1034.73 139.75C1034.8 132.979 1033.63 127.087 1031.22 122.074C1028.81 116.996 1025.42 113.057 1021.06 110.258C1016.77 107.458 1011.85 106.091 1006.32 106.156C1001.11 106.091 996.388 107.426 992.156 110.16C987.989 112.829 984.636 116.671 982.097 121.684C979.623 126.697 978.386 132.719 978.386 139.75C978.386 146.325 979.591 152.185 982 157.328C984.473 162.406 987.826 166.41 992.058 169.34C996.29 172.269 1001.14 173.734 1006.61 173.734ZM1123.89 193.656C1113.35 193.656 1104.13 191.41 1096.26 186.918C1088.38 182.361 1082.23 176.046 1077.8 167.973C1073.37 159.9 1071.16 150.59 1071.16 140.043C1071.16 129.105 1073.37 119.633 1077.8 111.625C1082.23 103.617 1088.18 97.4322 1095.67 93.0703C1103.16 88.6432 1111.46 86.4296 1120.57 86.4296C1129.3 86.4296 1137.18 88.4479 1144.21 92.4843C1151.3 96.5208 1156.93 102.152 1161.1 109.379C1165.27 116.54 1167.35 124.939 1167.35 134.574C1167.35 137.048 1167.22 139.359 1166.96 141.508C1166.7 143.656 1166.37 145.805 1165.98 147.953H1088.44V131.644H1145.77C1145.77 126.697 1144.73 122.302 1142.64 118.461C1140.56 114.555 1137.63 111.495 1133.85 109.281C1130.08 107.003 1125.65 105.863 1120.57 105.863C1114.84 105.863 1109.83 107.296 1105.53 110.16C1101.3 112.96 1097.98 116.898 1095.57 121.977C1093.23 126.99 1092.06 132.849 1092.06 139.555C1092.06 146.391 1093.33 152.413 1095.87 157.621C1098.47 162.829 1102.12 166.898 1106.8 169.828C1111.56 172.758 1117.19 174.223 1123.7 174.223C1127.41 174.223 1130.93 173.767 1134.25 172.855C1137.57 171.944 1140.59 170.772 1143.33 169.34C1146.06 167.842 1148.41 166.28 1150.36 164.652L1158.27 183.598C1154.17 186.527 1149.12 188.936 1143.13 190.824C1137.21 192.712 1130.8 193.656 1123.89 193.656ZM1186.3 192.094V87.8945H1208.95V103.227H1211.88L1205.53 110.062C1207.29 106.286 1209.77 102.575 1212.96 98.9296C1216.15 95.2838 1220.09 92.289 1224.77 89.9453C1229.46 87.5364 1234.86 86.332 1240.98 86.332C1243.46 86.332 1245.7 86.5273 1247.72 86.9179C1249.81 87.2434 1251.27 87.6341 1252.12 88.0898L1242.84 110.16C1242.32 109.9 1241.31 109.639 1239.81 109.379C1238.38 109.118 1236.72 108.988 1234.83 108.988C1232.1 108.988 1229.23 109.542 1226.24 110.648C1223.31 111.755 1220.54 113.415 1217.94 115.629C1215.4 117.842 1213.31 120.609 1211.69 123.93C1210.12 127.185 1209.34 130.961 1209.34 135.258V192.094H1186.3Z" fill="#2A5B52"/>
<path fill-rule="evenodd" clip-rule="evenodd" d="M11.7691 4.20703L15.5601 10.0916C26.9521 27.7743 38.8966 58.1101 43.612 97.4069C46.5717 122.071 45.5895 145.123 44.5703 163.331C44.4771 164.997 44.384 166.615 44.2937 168.185C43.8847 175.295 43.532 181.426 43.4738 186.604C43.3996 193.198 43.8559 196.964 44.5797 198.774L44.6625 198.981L44.732 199.193C45.2129 200.659 46.8039 202.922 50.0963 205.241C53.2747 207.48 57.5091 209.38 62.2522 210.399C71.6339 212.414 82.0741 210.85 90.0662 203.034C91.5413 201.146 92.7267 197.859 93.4553 192.113C94.095 187.068 94.29 181.106 94.5243 173.946C94.5633 172.754 94.6034 171.529 94.6468 170.269C95.244 152.939 96.4451 130.756 104.983 106.484L105.073 106.229L105.182 105.981C114.687 84.4362 129.98 73.398 145.379 68.6851C160.475 64.065 175.376 65.5906 184.746 68.5017L191.43 70.5785L187.277 83.9482L180.592 81.8713C173.472 79.6593 161.477 78.3993 149.476 82.0722C137.833 85.6356 125.887 93.9085 118.099 111.388C110.389 133.439 109.225 153.734 108.638 170.751C108.597 171.943 108.559 173.128 108.521 174.302C108.291 181.391 108.074 188.121 107.344 193.874C106.504 200.499 104.856 207.199 100.617 212.247L100.422 212.48L100.206 212.695C88.0567 224.845 72.2624 226.868 59.3122 224.086C52.8422 222.697 46.8445 220.075 42.0347 216.687C37.4007 213.423 33.2949 209.029 31.4994 203.766C29.6947 199.092 29.4031 192.81 29.4747 186.447C29.5369 180.913 29.9138 174.37 30.3241 167.248C30.4128 165.707 30.5032 164.139 30.5922 162.549C31.6053 144.449 32.5153 122.439 29.7117 99.0748C25.2061 61.5266 13.8525 33.2912 3.79107 17.6737L0 11.7892L11.7691 4.20703Z" fill="#2A5B52"/>
<path d="M42.506 1.25622L21.1299 8.39285L25.521 15.403C34.7303 30.1051 41.6942 46.099 46.1828 62.8565C49.186 74.0684 51.0624 85.5521 51.7839 97.1368L53.3077 121.602L51.9529 163.739V186.984C51.9529 191.858 54.5103 196.375 58.6898 198.883C60.8464 200.176 63.314 200.86 65.829 200.86H69.86C74.5693 200.86 79.0396 198.787 82.0815 195.192C84.3397 192.523 85.6622 189.188 85.8472 185.697L87.9209 146.548C88.2323 140.67 89.0051 134.824 90.2322 129.066L93.5568 113.466C96.7702 98.3879 105.061 84.8692 117.044 75.1689C126.356 67.63 137.512 62.7129 149.36 60.9249L151.795 60.5574C161.889 59.0341 172.173 59.3081 182.172 61.3666L182.662 61.4674L164.379 40.8674C152.088 42.9529 140.371 47.5934 129.984 54.4892L119.474 61.4674L126.185 56.215C136.97 47.7748 149.411 41.7008 162.698 38.3886L141.644 20.8429C128.086 31.6325 116.56 44.7528 107.607 59.5881L104.259 65.1365L108.949 55.8354C115.905 42.0443 125.372 29.6721 136.866 19.3538C131.494 14.2416 125.381 9.97056 118.733 6.68521L116.926 5.79251C99.932 35.9462 87.896 68.6359 81.2788 102.61L80.6626 105.774C85.0387 74.2356 93.6079 43.423 106.143 14.1537L110.341 4.35182C101.784 2.29093 93.086 0.868312 84.3184 0.0957L83.2324 0C83.4321 26.4693 81.4841 52.9111 77.4077 79.0654L70.7778 121.602L76.1134 76.6859C79.1375 51.2278 79.4221 25.5188 76.9624 0L50.6989 1.25622L59.336 34.9671C64.1593 61.5223 65.6723 88.5729 63.8403 115.5L61.9855 142.762L62.6982 91.9548C62.9359 75.0137 61.1309 58.1058 57.3225 41.5967C56.3043 37.1831 54.9592 32.8514 53.2983 28.6374L42.506 1.25622Z" fill="#2A5B52"/>
</svg>
