<svg width="37" height="34" viewBox="0 0 37 34" fill="none" xmlns="http://www.w3.org/2000/svg">
  <path d="M4.96662 23.955C7.68412 23.0195 10.4996 24.0902 11.2685 26.3234C12.0372 28.5565 10.4779 31.1337 7.76066 32.0695C5.04315 33.0052 2.22695 31.9345 1.45784 29.7015C0.68887 27.4682 2.249 24.8908 4.96662 23.955Z" fill="#8775FF" stroke="#D7D1FF" stroke-width="0.0949721"/>
  <path d="M10.447 10.6922V4.09669C10.447 4.05069 10.48 4.0113 10.5253 4.0032L27.0504 1.04647C27.1086 1.03606 27.1621 1.08082 27.1621 1.13996V7.30428C27.1621 7.34938 27.1304 7.38826 27.0862 7.39731L10.5611 10.7852C10.5022 10.7973 10.447 10.7523 10.447 10.6922Z" fill="#8775FF" stroke="#8775FF" stroke-width="2.08939"/>
  <path d="M18.8044 15.6046C18.8044 15.6046 23.8306 20.3242 24.8878 19.9067C25.945 19.4892 34 7.67456 34 7.67456" stroke="#D7D1FF" stroke-width="4.42" stroke-linecap="round"/>
  <path d="M10.447 14.2751C11.4697 14.2751 12.2984 15.1041 12.2986 16.1267C12.2986 17.1495 11.4698 17.9792 10.447 17.9792C9.42423 17.9792 8.59546 17.1495 8.59546 16.1267C8.59564 15.1041 9.42434 14.2752 10.447 14.2751Z" fill="#8775FF" stroke="#D7D1FF" stroke-width="0.0949721"/>
  <path d="M28.2266 24.1044C28.2265 24.681 27.7582 25.1488 27.1816 25.1493C26.6049 25.1493 26.1361 24.682 26.1357 24.1053V23.3973C26.1736 23.3837 26.2129 23.3723 26.251 23.3573C27.0404 23.0455 27.5871 22.515 27.6982 22.411C27.8844 22.2369 28.0618 22.0464 28.2256 21.8661L28.2266 24.1044ZM27.1807 0.931519C27.7575 0.931651 28.2255 1.39964 28.2256 1.97644V9.49109C27.778 10.1287 27.3034 10.8031 26.8213 11.4784C26.5929 11.7983 26.3629 12.1162 26.1357 12.4305L26.1367 1.97644C26.1368 1.39968 26.6039 0.931701 27.1807 0.931519Z" fill="#8775FF"/>
  <path d="M19.6304 21.2059C20.2385 21.6825 20.9032 22.1719 21.5386 22.5653C21.9378 22.8125 22.4572 23.1053 23.0249 23.3173C23.3613 23.4429 24.7302 23.9575 26.2505 23.3573C27.0395 23.0456 27.5862 22.5154 27.6978 22.411C27.7697 22.3437 27.8382 22.2713 27.9077 22.201C27.9664 22.3265 28.02 22.4554 28.0659 22.5887C28.8779 24.947 27.3243 27.6198 24.5962 28.5594C21.8679 29.4989 18.9983 28.3492 18.186 25.9911C17.6064 24.3077 18.2323 22.4649 19.6304 21.2059Z" fill="#8775FF"/>
  <path d="M15.2832 14.4364C15.0738 15.0687 15.0398 15.7444 15.1787 16.3895L11.3838 17.1083C10.8686 17.2057 10.3711 16.8665 10.2734 16.3514C10.1761 15.8363 10.5152 15.3398 11.0303 15.2421L15.2832 14.4364Z" fill="#8775FF"/>
  <path d="M9.40234 19.3569C9.74768 19.4709 10.1165 19.5337 10.5 19.5337C10.8444 19.5337 11.1768 19.4828 11.4912 19.3901L11.4922 27.9985C11.492 28.575 11.0237 29.043 10.4473 29.0435C9.87082 29.0432 9.40284 28.5759 9.40234 27.9995V19.3569ZM10.4473 4.82568C11.0238 4.82609 11.4911 5.29397 11.4912 5.87061V12.6763C11.1769 12.5836 10.8443 12.5337 10.5 12.5337C10.1166 12.5337 9.7476 12.5955 9.40234 12.7095V5.87061C9.40246 5.29385 9.87053 4.82587 10.4473 4.82568Z" fill="#8775FF"/>
</svg>
